<?xml version="1.0" standalone="no"?>
<!DOCTYPE svg PUBLIC "-//W3C//DTD SVG 20010904//EN"
 "http://www.w3.org/TR/2001/REC-SVG-20010904/DTD/svg10.dtd">
<svg version="1.0" xmlns="http://www.w3.org/2000/svg"
 width="32.000000pt" height="32.000000pt" viewBox="0 0 32.000000 32.000000"
 preserveAspectRatio="xMidYMid meet">

<g transform="translate(0.000000,32.000000) scale(0.100000,-0.100000)"
fill="#000000" stroke="none">
<path d="M69 283 c-13 -17 -13 -17 6 -3 11 8 22 16 24 17 2 2 0 3 -6 3 -6 0
-17 -8 -24 -17z"/>
<path d="M93 270 c-85 -51 -81 -179 6 -225 116 -60 239 71 171 182 -37 61
-116 81 -177 43z m99 -42 c3 -29 7 -33 36 -36 28 -3 32 -7 32 -32 0 -25 -4
-29 -32 -32 -29 -3 -33 -7 -36 -36 -3 -31 -6 -33 -35 -30 -28 3 -32 7 -35 36
-3 28 -7 32 -33 32 -26 0 -29 3 -29 30 0 27 3 30 30 30 26 0 30 4 30 28 0 36
6 42 41 42 24 0 28 -4 31 -32z"/>
<path d="M21 227 c-11 -24 -21 -53 -21 -65 0 -24 25 -92 34 -92 3 0 -2 16 -10
35 -19 46 -18 73 6 120 11 21 18 40 16 42 -2 2 -13 -16 -25 -40z"/>
</g>
</svg>
